<?xml version="1.0" encoding="UTF-8" standalone="no"?>
<!DOCTYPE svg PUBLIC "-//W3C//DTD SVG 1.1//EN"
 "http://www.w3.org/Graphics/SVG/1.1/DTD/svg11.dtd">
<!-- Generated by graphviz version 13.1.2 (20250808.2320)
 -->
<!-- Title: G Pages: 1 -->
<svg width="4148pt" height="483pt"
 viewBox="0.00 0.00 4148.00 483.00" xmlns="http://www.w3.org/2000/svg" xmlns:xlink="http://www.w3.org/1999/xlink">
<g id="graph0" class="graph" transform="scale(4.16667 4.16667) rotate(0) translate(4 112)">
<title>G</title>
<polygon fill="white" stroke="none" points="-4,4 -4,-112 991.62,-112 991.62,4 -4,4"/>
<!-- google_compute_address.wordpress_ip -->
<g id="node1" class="node">
<title>google_compute_address.wordpress_ip</title>
<polygon fill="none" stroke="black" points="342.38,-36 84.88,-36 84.88,0 342.38,0 342.38,-36"/>
<text xml:space="preserve" text-anchor="middle" x="213.62" y="-13.32" font-family="sans-serif" font-size="14.00">google_compute_address.wordpress_ip</text>
</g>
<!-- google_compute_disk.wp_content -->
<g id="node2" class="node">
<title>google_compute_disk.wp_content</title>
<polygon fill="none" stroke="black" points="607.5,-36 383.75,-36 383.75,0 607.5,0 607.5,-36"/>
<text xml:space="preserve" text-anchor="middle" x="495.62" y="-13.32" font-family="sans-serif" font-size="14.00">google_compute_disk.wp_content</text>
</g>
<!-- google_compute_disk_resource_policy_attachment.backup -->
<g id="node3" class="node">
<title>google_compute_disk_resource_policy_attachment.backup</title>
<polygon fill="none" stroke="black" points="987.62,-108 611.62,-108 611.62,-72 987.62,-72 987.62,-108"/>
<text xml:space="preserve" text-anchor="middle" x="799.62" y="-85.33" font-family="sans-serif" font-size="14.00">google_compute_disk_resource_policy_attachment.backup</text>
</g>
<!-- google_compute_disk_resource_policy_attachment.backup&#45;&gt;google_compute_disk.wp_content -->
<g id="edge1" class="edge">
<title>google_compute_disk_resource_policy_attachment.backup&#45;&gt;google_compute_disk.wp_content</title>
<path fill="none" stroke="black" d="M723.7,-71.52C680.82,-61.64 627.05,-49.26 582.49,-39"/>
<polygon fill="black" stroke="black" points="583.38,-35.62 572.85,-36.78 581.81,-42.44 583.38,-35.62"/>
</g>
<!-- google_compute_resource_policy.daily_backup -->
<g id="node5" class="node">
<title>google_compute_resource_policy.daily_backup</title>
<polygon fill="none" stroke="black" points="950.5,-36 648.75,-36 648.75,0 950.5,0 950.5,-36"/>
<text xml:space="preserve" text-anchor="middle" x="799.62" y="-13.32" font-family="sans-serif" font-size="14.00">google_compute_resource_policy.daily_backup</text>
</g>
<!-- google_compute_disk_resource_policy_attachment.backup&#45;&gt;google_compute_resource_policy.daily_backup -->
<g id="edge2" class="edge">
<title>google_compute_disk_resource_policy_attachment.backup&#45;&gt;google_compute_resource_policy.daily_backup</title>
<path fill="none" stroke="black" d="M799.62,-71.7C799.62,-64.41 799.62,-55.73 799.62,-47.54"/>
<polygon fill="black" stroke="black" points="803.13,-47.62 799.63,-37.62 796.13,-47.62 803.13,-47.62"/>
</g>
<!-- google_compute_instance.wordpress -->
<g id="node4" class="node">
<title>google_compute_instance.wordpress</title>
<polygon fill="none" stroke="black" points="593.88,-108 351.38,-108 351.38,-72 593.88,-72 593.88,-108"/>
<text xml:space="preserve" text-anchor="middle" x="472.62" y="-85.33" font-family="sans-serif" font-size="14.00">google_compute_instance.wordpress</text>
</g>
<!-- google_compute_instance.wordpress&#45;&gt;google_compute_address.wordpress_ip -->
<g id="edge3" class="edge">
<title>google_compute_instance.wordpress&#45;&gt;google_compute_address.wordpress_ip</title>
<path fill="none" stroke="black" d="M407.94,-71.52C371.8,-61.75 326.59,-49.53 288.87,-39.34"/>
<polygon fill="black" stroke="black" points="289.97,-36.01 279.4,-36.78 288.14,-42.76 289.97,-36.01"/>
</g>
<!-- google_compute_instance.wordpress&#45;&gt;google_compute_disk.wp_content -->
<g id="edge4" class="edge">
<title>google_compute_instance.wordpress&#45;&gt;google_compute_disk.wp_content</title>
<path fill="none" stroke="black" d="M478.31,-71.7C480.76,-64.24 483.69,-55.32 486.44,-46.97"/>
<polygon fill="black" stroke="black" points="489.74,-48.14 489.53,-37.54 483.09,-45.95 489.74,-48.14"/>
</g>
<!-- google_monitoring_uptime_check_config.wordpress -->
<g id="node6" class="node">
<title>google_monitoring_uptime_check_config.wordpress</title>
<polygon fill="none" stroke="black" points="333.25,-108 0,-108 0,-72 333.25,-72 333.25,-108"/>
<text xml:space="preserve" text-anchor="middle" x="166.62" y="-85.33" font-family="sans-serif" font-size="14.00">google_monitoring_uptime_check_config.wordpress</text>
</g>
<!-- google_monitoring_uptime_check_config.wordpress&#45;&gt;google_compute_address.wordpress_ip -->
<g id="edge5" class="edge">
<title>google_monitoring_uptime_check_config.wordpress&#45;&gt;google_compute_address.wordpress_ip</title>
<path fill="none" stroke="black" d="M178.24,-71.7C183.54,-63.81 189.92,-54.3 195.8,-45.55"/>
<polygon fill="black" stroke="black" points="198.63,-47.61 201.3,-37.36 192.82,-43.71 198.63,-47.61"/>
</g>
</g>
</svg>
