<?xml version="1.0" encoding="UTF-8" standalone="no"?>
<!DOCTYPE svg PUBLIC "-//W3C//DTD SVG 1.1//EN"
 "http://www.w3.org/Graphics/SVG/1.1/DTD/svg11.dtd">
<!-- Generated by graphviz version 13.1.2 (20250808.2320)
 -->
<!-- Title: G Pages: 1 -->
<svg width="722pt" height="152pt"
 viewBox="0.00 0.00 722.00 152.00" xmlns="http://www.w3.org/2000/svg" xmlns:xlink="http://www.w3.org/1999/xlink">
<g id="graph0" class="graph" transform="scale(1 1) rotate(0) translate(4 148)">
<title>G</title>
<polygon fill="white" stroke="none" points="-4,4 -4,-148 717.75,-148 717.75,4 -4,4"/>
<!-- google_compute_address.wordpress_ip -->
<g id="node1" class="node">
<title>google_compute_address.wordpress_ip</title>
<polygon fill="none" stroke="black" points="279.62,-144 22.12,-144 22.12,-108 279.62,-108 279.62,-144"/>
<text xml:space="preserve" text-anchor="middle" x="150.88" y="-121.33" font-family="sans-serif" font-size="14.00">google_compute_address.wordpress_ip</text>
</g>
<!-- google_compute_disk.wp_content -->
<g id="node2" class="node">
<title>google_compute_disk.wp_content</title>
<polygon fill="none" stroke="black" points="262.75,-90 39,-90 39,-54 262.75,-54 262.75,-90"/>
<text xml:space="preserve" text-anchor="middle" x="150.88" y="-67.33" font-family="sans-serif" font-size="14.00">google_compute_disk.wp_content</text>
</g>
<!-- google_compute_disk_resource_policy_attachment.backup -->
<g id="node3" class="node">
<title>google_compute_disk_resource_policy_attachment.backup</title>
<polygon fill="none" stroke="black" points="713.75,-36 337.75,-36 337.75,0 713.75,0 713.75,-36"/>
<text xml:space="preserve" text-anchor="middle" x="525.75" y="-13.32" font-family="sans-serif" font-size="14.00">google_compute_disk_resource_policy_attachment.backup</text>
</g>
<!-- google_compute_disk_resource_policy_attachment.backup&#45;&gt;google_compute_disk.wp_content -->
<g id="edge1" class="edge">
<title>google_compute_disk_resource_policy_attachment.backup&#45;&gt;google_compute_disk.wp_content</title>
<path fill="none" stroke="black" d="M396.74,-36.47C376.99,-39.32 356.82,-42.24 337.75,-45 317.23,-47.97 295.44,-51.13 274.28,-54.2"/>
<polygon fill="black" stroke="black" points="273.83,-50.73 264.44,-55.63 274.84,-57.66 273.83,-50.73"/>
</g>
<!-- google_compute_resource_policy.daily_backup -->
<g id="node5" class="node">
<title>google_compute_resource_policy.daily_backup</title>
<polygon fill="none" stroke="black" points="301.75,-36 0,-36 0,0 301.75,0 301.75,-36"/>
<text xml:space="preserve" text-anchor="middle" x="150.88" y="-13.32" font-family="sans-serif" font-size="14.00">google_compute_resource_policy.daily_backup</text>
</g>
<!-- google_compute_disk_resource_policy_attachment.backup&#45;&gt;google_compute_resource_policy.daily_backup -->
<g id="edge2" class="edge">
<title>google_compute_disk_resource_policy_attachment.backup&#45;&gt;google_compute_resource_policy.daily_backup</title>
<path fill="none" stroke="black" d="M337.49,-18C329.41,-18 321.33,-18 313.31,-18"/>
<polygon fill="black" stroke="black" points="313.54,-14.5 303.54,-18 313.54,-21.5 313.54,-14.5"/>
</g>
<!-- google_compute_instance.wordpress -->
<g id="node4" class="node">
<title>google_compute_instance.wordpress</title>
<polygon fill="none" stroke="black" points="647,-90 404.5,-90 404.5,-54 647,-54 647,-90"/>
<text xml:space="preserve" text-anchor="middle" x="525.75" y="-67.33" font-family="sans-serif" font-size="14.00">google_compute_instance.wordpress</text>
</g>
<!-- google_compute_instance.wordpress&#45;&gt;google_compute_address.wordpress_ip -->
<g id="edge3" class="edge">
<title>google_compute_instance.wordpress&#45;&gt;google_compute_address.wordpress_ip</title>
<path fill="none" stroke="black" d="M404.04,-89.41C381.98,-92.6 359.18,-95.9 337.75,-99 322.35,-101.23 306.22,-103.57 290.19,-105.9"/>
<polygon fill="black" stroke="black" points="290,-102.39 280.6,-107.29 291,-109.31 290,-102.39"/>
</g>
<!-- google_compute_instance.wordpress&#45;&gt;google_compute_disk.wp_content -->
<g id="edge4" class="edge">
<title>google_compute_instance.wordpress&#45;&gt;google_compute_disk.wp_content</title>
<path fill="none" stroke="black" d="M404.2,-72C362.69,-72 316.17,-72 274.49,-72"/>
<polygon fill="black" stroke="black" points="274.67,-68.5 264.67,-72 274.67,-75.5 274.67,-68.5"/>
</g>
<!-- google_monitoring_uptime_check_config.wordpress -->
<g id="node6" class="node">
<title>google_monitoring_uptime_check_config.wordpress</title>
<polygon fill="none" stroke="black" points="692.38,-144 359.12,-144 359.12,-108 692.38,-108 692.38,-144"/>
<text xml:space="preserve" text-anchor="middle" x="525.75" y="-121.33" font-family="sans-serif" font-size="14.00">google_monitoring_uptime_check_config.wordpress</text>
</g>
<!-- google_monitoring_uptime_check_config.wordpress&#45;&gt;google_compute_address.wordpress_ip -->
<g id="edge5" class="edge">
<title>google_monitoring_uptime_check_config.wordpress&#45;&gt;google_compute_address.wordpress_ip</title>
<path fill="none" stroke="black" d="M358.76,-126C336.25,-126 313.34,-126 291.36,-126"/>
<polygon fill="black" stroke="black" points="291.47,-122.5 281.47,-126 291.47,-129.5 291.47,-122.5"/>
</g>
</g>
</svg>
