<?xml version="1.0" encoding="UTF-8" standalone="no"?>
<!DOCTYPE svg PUBLIC "-//W3C//DTD SVG 1.1//EN"
 "http://www.w3.org/Graphics/SVG/1.1/DTD/svg11.dtd">
<!-- Generated by graphviz version 13.1.2 (20250808.2320)
 -->
<!-- Pages: 1 -->
<svg width="1348pt" height="404pt"
 viewBox="0.00 0.00 1348.00 404.00" xmlns="http://www.w3.org/2000/svg" xmlns:xlink="http://www.w3.org/1999/xlink">
<g id="graph0" class="graph" transform="scale(1 1) rotate(0) translate(4 400)">
<polygon fill="white" stroke="none" points="-4,4 -4,-400 1343.77,-400 1343.77,4 -4,4"/>
<!-- [root] google_compute_address.wordpress_ip (expand) -->
<g id="node1" class="node">
<title>[root] google_compute_address.wordpress_ip (expand)</title>
<polygon fill="none" stroke="black" points="886.5,-180 656,-180 656,-144 886.5,-144 886.5,-180"/>
<text xml:space="preserve" text-anchor="middle" x="771.25" y="-156.95" font-family="Times New Roman,serif" font-size="14.00">google_compute_address.wordpress_ip</text>
</g>
<!-- [root] provider[&quot;registry.terraform.io/hashicorp/google&quot;] -->
<g id="node7" class="node">
<title>[root] provider[&quot;registry.terraform.io/hashicorp/google&quot;]</title>
<polygon fill="none" stroke="black" points="520.25,-108 240.62,-90 520.25,-72 799.88,-90 520.25,-108"/>
<text xml:space="preserve" text-anchor="middle" x="520.25" y="-84.95" font-family="Times New Roman,serif" font-size="14.00">provider[&quot;registry.terraform.io/hashicorp/google&quot;]</text>
</g>
<!-- [root] google_compute_address.wordpress_ip (expand)&#45;&gt;[root] provider[&quot;registry.terraform.io/hashicorp/google&quot;] -->
<g id="edge1" class="edge">
<title>[root] google_compute_address.wordpress_ip (expand)&#45;&gt;[root] provider[&quot;registry.terraform.io/hashicorp/google&quot;]</title>
<path fill="none" stroke="black" d="M708.56,-143.52C669.97,-132.75 620.7,-119.02 582.24,-108.29"/>
<polygon fill="black" stroke="black" points="583.22,-104.93 572.65,-105.61 581.34,-111.67 583.22,-104.93"/>
</g>
<!-- [root] google_compute_disk.wp_content (expand) -->
<g id="node2" class="node">
<title>[root] google_compute_disk.wp_content (expand)</title>
<polygon fill="none" stroke="black" points="621.62,-180 418.88,-180 418.88,-144 621.62,-144 621.62,-180"/>
<text xml:space="preserve" text-anchor="middle" x="520.25" y="-156.95" font-family="Times New Roman,serif" font-size="14.00">google_compute_disk.wp_content</text>
</g>
<!-- [root] google_compute_disk.wp_content (expand)&#45;&gt;[root] provider[&quot;registry.terraform.io/hashicorp/google&quot;] -->
<g id="edge2" class="edge">
<title>[root] google_compute_disk.wp_content (expand)&#45;&gt;[root] provider[&quot;registry.terraform.io/hashicorp/google&quot;]</title>
<path fill="none" stroke="black" d="M520.25,-143.7C520.25,-136.41 520.25,-127.73 520.25,-119.54"/>
<polygon fill="black" stroke="black" points="523.75,-119.62 520.25,-109.62 516.75,-119.62 523.75,-119.62"/>
</g>
<!-- [root] google_compute_disk_resource_policy_attachment.backup (expand) -->
<g id="node3" class="node">
<title>[root] google_compute_disk_resource_policy_attachment.backup (expand)</title>
<polygon fill="none" stroke="black" points="338.5,-252 0,-252 0,-216 338.5,-216 338.5,-252"/>
<text xml:space="preserve" text-anchor="middle" x="169.25" y="-228.95" font-family="Times New Roman,serif" font-size="14.00">google_compute_disk_resource_policy_attachment.backup</text>
</g>
<!-- [root] google_compute_disk_resource_policy_attachment.backup (expand)&#45;&gt;[root] google_compute_disk.wp_content (expand) -->
<g id="edge3" class="edge">
<title>[root] google_compute_disk_resource_policy_attachment.backup (expand)&#45;&gt;[root] google_compute_disk.wp_content (expand)</title>
<path fill="none" stroke="black" d="M256.92,-215.52C306.95,-205.54 369.82,-193 421.58,-182.68"/>
<polygon fill="black" stroke="black" points="422.18,-186.13 431.3,-180.74 420.81,-179.26 422.18,-186.13"/>
</g>
<!-- [root] google_compute_resource_policy.daily_backup (expand) -->
<g id="node5" class="node">
<title>[root] google_compute_resource_policy.daily_backup (expand)</title>
<polygon fill="none" stroke="black" points="370,-180 94.5,-180 94.5,-144 370,-144 370,-180"/>
<text xml:space="preserve" text-anchor="middle" x="232.25" y="-156.95" font-family="Times New Roman,serif" font-size="14.00">google_compute_resource_policy.daily_backup</text>
</g>
<!-- [root] google_compute_disk_resource_policy_attachment.backup (expand)&#45;&gt;[root] google_compute_resource_policy.daily_backup (expand) -->
<g id="edge4" class="edge">
<title>[root] google_compute_disk_resource_policy_attachment.backup (expand)&#45;&gt;[root] google_compute_resource_policy.daily_backup (expand)</title>
<path fill="none" stroke="black" d="M184.82,-215.7C192.22,-207.47 201.22,-197.48 209.37,-188.42"/>
<polygon fill="black" stroke="black" points="211.76,-191 215.84,-181.23 206.55,-186.32 211.76,-191"/>
</g>
<!-- [root] google_compute_instance.wordpress (expand) -->
<g id="node4" class="node">
<title>[root] google_compute_instance.wordpress (expand)</title>
<polygon fill="none" stroke="black" points="895.75,-252 678.75,-252 678.75,-216 895.75,-216 895.75,-252"/>
<text xml:space="preserve" text-anchor="middle" x="787.25" y="-228.95" font-family="Times New Roman,serif" font-size="14.00">google_compute_instance.wordpress</text>
</g>
<!-- [root] google_compute_instance.wordpress (expand)&#45;&gt;[root] google_compute_address.wordpress_ip (expand) -->
<g id="edge5" class="edge">
<title>[root] google_compute_instance.wordpress (expand)&#45;&gt;[root] google_compute_address.wordpress_ip (expand)</title>
<path fill="none" stroke="black" d="M783.29,-215.7C781.61,-208.32 779.6,-199.52 777.71,-191.25"/>
<polygon fill="black" stroke="black" points="781.14,-190.55 775.5,-181.58 774.31,-192.11 781.14,-190.55"/>
</g>
<!-- [root] google_compute_instance.wordpress (expand)&#45;&gt;[root] google_compute_disk.wp_content (expand) -->
<g id="edge6" class="edge">
<title>[root] google_compute_instance.wordpress (expand)&#45;&gt;[root] google_compute_disk.wp_content (expand)</title>
<path fill="none" stroke="black" d="M720.56,-215.52C683.23,-205.73 636.5,-193.48 597.57,-183.27"/>
<polygon fill="black" stroke="black" points="598.57,-179.92 588.01,-180.77 596.8,-186.69 598.57,-179.92"/>
</g>
<!-- [root] google_compute_resource_policy.daily_backup (expand)&#45;&gt;[root] provider[&quot;registry.terraform.io/hashicorp/google&quot;] -->
<g id="edge7" class="edge">
<title>[root] google_compute_resource_policy.daily_backup (expand)&#45;&gt;[root] provider[&quot;registry.terraform.io/hashicorp/google&quot;]</title>
<path fill="none" stroke="black" d="M304.18,-143.52C349.64,-132.47 408.02,-118.28 452.63,-107.43"/>
<polygon fill="black" stroke="black" points="453.3,-110.87 462.19,-105.11 451.65,-104.07 453.3,-110.87"/>
</g>
<!-- [root] google_monitoring_uptime_check_config.wordpress (expand) -->
<g id="node6" class="node">
<title>[root] google_monitoring_uptime_check_config.wordpress (expand)</title>
<polygon fill="none" stroke="black" points="660.25,-252 356.25,-252 356.25,-216 660.25,-216 660.25,-252"/>
<text xml:space="preserve" text-anchor="middle" x="508.25" y="-228.95" font-family="Times New Roman,serif" font-size="14.00">google_monitoring_uptime_check_config.wordpress</text>
</g>
<!-- [root] google_monitoring_uptime_check_config.wordpress (expand)&#45;&gt;[root] google_compute_address.wordpress_ip (expand) -->
<g id="edge8" class="edge">
<title>[root] google_monitoring_uptime_check_config.wordpress (expand)&#45;&gt;[root] google_compute_address.wordpress_ip (expand)</title>
<path fill="none" stroke="black" d="M573.94,-215.52C610.63,-205.75 656.54,-193.53 694.84,-183.34"/>
<polygon fill="black" stroke="black" points="695.72,-186.73 704.48,-180.77 693.92,-179.96 695.72,-186.73"/>
</g>
<!-- [root] local.gcp_project_id (expand) -->
<g id="node12" class="node">
<title>[root] local.gcp_project_id (expand)</title>
<ellipse fill="none" stroke="black" cx="225.25" cy="-18" rx="145.52" ry="18"/>
<text xml:space="preserve" text-anchor="middle" x="225.25" y="-12.95" font-family="Times New Roman,serif" font-size="14.00">[root] local.gcp_project_id (expand)</text>
</g>
<!-- [root] provider[&quot;registry.terraform.io/hashicorp/google&quot;]&#45;&gt;[root] local.gcp_project_id (expand) -->
<g id="edge15" class="edge">
<title>[root] provider[&quot;registry.terraform.io/hashicorp/google&quot;]&#45;&gt;[root] local.gcp_project_id (expand)</title>
<path fill="none" stroke="black" d="M462.32,-75.25C416.38,-64.35 351.78,-49.02 301.61,-37.12"/>
<polygon fill="black" stroke="black" points="302.5,-33.73 291.97,-34.83 300.89,-40.55 302.5,-33.73"/>
</g>
<!-- [root] local.gcp_region (expand) -->
<g id="node13" class="node">
<title>[root] local.gcp_region (expand)</title>
<ellipse fill="none" stroke="black" cx="520.25" cy="-18" rx="131.71" ry="18"/>
<text xml:space="preserve" text-anchor="middle" x="520.25" y="-12.95" font-family="Times New Roman,serif" font-size="14.00">[root] local.gcp_region (expand)</text>
</g>
<!-- [root] provider[&quot;registry.terraform.io/hashicorp/google&quot;]&#45;&gt;[root] local.gcp_region (expand) -->
<g id="edge16" class="edge">
<title>[root] provider[&quot;registry.terraform.io/hashicorp/google&quot;]&#45;&gt;[root] local.gcp_region (expand)</title>
<path fill="none" stroke="black" d="M520.25,-71.7C520.25,-64.41 520.25,-55.73 520.25,-47.54"/>
<polygon fill="black" stroke="black" points="523.75,-47.62 520.25,-37.62 516.75,-47.62 523.75,-47.62"/>
</g>
<!-- [root] local.gcp_zone (expand) -->
<g id="node14" class="node">
<title>[root] local.gcp_zone (expand)</title>
<ellipse fill="none" stroke="black" cx="795.25" cy="-18" rx="125.56" ry="18"/>
<text xml:space="preserve" text-anchor="middle" x="795.25" y="-12.95" font-family="Times New Roman,serif" font-size="14.00">[root] local.gcp_zone (expand)</text>
</g>
<!-- [root] provider[&quot;registry.terraform.io/hashicorp/google&quot;]&#45;&gt;[root] local.gcp_zone (expand) -->
<g id="edge17" class="edge">
<title>[root] provider[&quot;registry.terraform.io/hashicorp/google&quot;]&#45;&gt;[root] local.gcp_zone (expand)</title>
<path fill="none" stroke="black" d="M574.91,-75.09C617.83,-64.16 677.93,-48.86 724.52,-37"/>
<polygon fill="black" stroke="black" points="725.15,-40.45 733.98,-34.6 723.43,-33.67 725.15,-40.45"/>
</g>
<!-- [root] output.wordpress_instance_name (expand) -->
<g id="node8" class="node">
<title>[root] output.wordpress_instance_name (expand)</title>
<ellipse fill="none" stroke="black" cx="1108.25" cy="-306" rx="193.63" ry="18"/>
<text xml:space="preserve" text-anchor="middle" x="1108.25" y="-300.95" font-family="Times New Roman,serif" font-size="14.00">[root] output.wordpress_instance_name (expand)</text>
</g>
<!-- [root] output.wordpress_instance_name (expand)&#45;&gt;[root] google_compute_instance.wordpress (expand) -->
<g id="edge9" class="edge">
<title>[root] output.wordpress_instance_name (expand)&#45;&gt;[root] google_compute_instance.wordpress (expand)</title>
<path fill="none" stroke="black" d="M1034.61,-288.94C988.14,-278.81 927.78,-265.65 878.32,-254.86"/>
<polygon fill="black" stroke="black" points="879.29,-251.49 868.78,-252.78 877.8,-258.33 879.29,-251.49"/>
</g>
<!-- [root] output.wordpress_instance_zone (expand) -->
<g id="node9" class="node">
<title>[root] output.wordpress_instance_zone (expand)</title>
<ellipse fill="none" stroke="black" cx="706.25" cy="-306" rx="190.56" ry="18"/>
<text xml:space="preserve" text-anchor="middle" x="706.25" y="-300.95" font-family="Times New Roman,serif" font-size="14.00">[root] output.wordpress_instance_zone (expand)</text>
</g>
<!-- [root] output.wordpress_instance_zone (expand)&#45;&gt;[root] google_compute_instance.wordpress (expand) -->
<g id="edge10" class="edge">
<title>[root] output.wordpress_instance_zone (expand)&#45;&gt;[root] google_compute_instance.wordpress (expand)</title>
<path fill="none" stroke="black" d="M726.27,-287.7C736.01,-279.28 747.89,-269.02 758.56,-259.79"/>
<polygon fill="black" stroke="black" points="760.75,-262.52 766.03,-253.34 756.18,-257.23 760.75,-262.52"/>
</g>
<!-- [root] output.wordpress_ip (expand) -->
<g id="node10" class="node">
<title>[root] output.wordpress_ip (expand)</title>
<ellipse fill="none" stroke="black" cx="1194.25" cy="-234" rx="145.52" ry="18"/>
<text xml:space="preserve" text-anchor="middle" x="1194.25" y="-228.95" font-family="Times New Roman,serif" font-size="14.00">[root] output.wordpress_ip (expand)</text>
</g>
<!-- [root] output.wordpress_ip (expand)&#45;&gt;[root] google_compute_address.wordpress_ip (expand) -->
<g id="edge11" class="edge">
<title>[root] output.wordpress_ip (expand)&#45;&gt;[root] google_compute_address.wordpress_ip (expand)</title>
<path fill="none" stroke="black" d="M1109.41,-218.96C1045.88,-208.45 958.22,-193.94 888.07,-182.33"/>
<polygon fill="black" stroke="black" points="888.89,-178.92 878.46,-180.74 887.75,-185.83 888.89,-178.92"/>
</g>
<!-- [root] provider[&quot;registry.terraform.io/hashicorp/google&quot;] (close) -->
<g id="node11" class="node">
<title>[root] provider[&quot;registry.terraform.io/hashicorp/google&quot;] (close)</title>
<ellipse fill="none" stroke="black" cx="249.25" cy="-306" rx="248.91" ry="18"/>
<text xml:space="preserve" text-anchor="middle" x="249.25" y="-300.95" font-family="Times New Roman,serif" font-size="14.00">[root] provider[&quot;registry.terraform.io/hashicorp/google&quot;] (close)</text>
</g>
<!-- [root] provider[&quot;registry.terraform.io/hashicorp/google&quot;] (close)&#45;&gt;[root] google_compute_disk_resource_policy_attachment.backup (expand) -->
<g id="edge12" class="edge">
<title>[root] provider[&quot;registry.terraform.io/hashicorp/google&quot;] (close)&#45;&gt;[root] google_compute_disk_resource_policy_attachment.backup (expand)</title>
<path fill="none" stroke="black" d="M229.47,-287.7C219.86,-279.28 208.13,-269.02 197.58,-259.79"/>
<polygon fill="black" stroke="black" points="200.04,-257.29 190.21,-253.34 195.44,-262.56 200.04,-257.29"/>
</g>
<!-- [root] provider[&quot;registry.terraform.io/hashicorp/google&quot;] (close)&#45;&gt;[root] google_compute_instance.wordpress (expand) -->
<g id="edge13" class="edge">
<title>[root] provider[&quot;registry.terraform.io/hashicorp/google&quot;] (close)&#45;&gt;[root] google_compute_instance.wordpress (expand)</title>
<path fill="none" stroke="black" d="M372.91,-289.97C453.75,-280.01 561.96,-266.42 667.13,-252.27"/>
<polygon fill="black" stroke="black" points="667.34,-255.78 676.78,-250.97 666.4,-248.84 667.34,-255.78"/>
</g>
<!-- [root] provider[&quot;registry.terraform.io/hashicorp/google&quot;] (close)&#45;&gt;[root] google_monitoring_uptime_check_config.wordpress (expand) -->
<g id="edge14" class="edge">
<title>[root] provider[&quot;registry.terraform.io/hashicorp/google&quot;] (close)&#45;&gt;[root] google_monitoring_uptime_check_config.wordpress (expand)</title>
<path fill="none" stroke="black" d="M311.62,-288.14C348.15,-278.27 394.53,-265.74 433.07,-255.32"/>
<polygon fill="black" stroke="black" points="433.52,-258.82 442.26,-252.84 431.69,-252.07 433.52,-258.82"/>
</g>
<!-- [root] root -->
<g id="node15" class="node">
<title>[root] root</title>
<ellipse fill="none" stroke="black" cx="907.25" cy="-378" rx="49.3" ry="18"/>
<text xml:space="preserve" text-anchor="middle" x="907.25" y="-372.95" font-family="Times New Roman,serif" font-size="14.00">[root] root</text>
</g>
<!-- [root] root&#45;&gt;[root] output.wordpress_instance_name (expand) -->
<g id="edge18" class="edge">
<title>[root] root&#45;&gt;[root] output.wordpress_instance_name (expand)</title>
<path fill="none" stroke="black" d="M941.8,-364.97C971.3,-354.69 1014.37,-339.69 1049.31,-327.53"/>
<polygon fill="black" stroke="black" points="1050.15,-330.94 1058.44,-324.35 1047.84,-324.33 1050.15,-330.94"/>
</g>
<!-- [root] root&#45;&gt;[root] output.wordpress_instance_zone (expand) -->
<g id="edge19" class="edge">
<title>[root] root&#45;&gt;[root] output.wordpress_instance_zone (expand)</title>
<path fill="none" stroke="black" d="M872.7,-364.97C843.2,-354.69 800.13,-339.69 765.19,-327.53"/>
<polygon fill="black" stroke="black" points="766.66,-324.33 756.06,-324.35 764.35,-330.94 766.66,-324.33"/>
</g>
<!-- [root] root&#45;&gt;[root] output.wordpress_ip (expand) -->
<g id="edge20" class="edge">
<title>[root] root&#45;&gt;[root] output.wordpress_ip (expand)</title>
<path fill="none" stroke="black" d="M955.73,-374.17C1057.95,-367.72 1288.1,-350.39 1311.25,-324 1321.8,-311.97 1319.92,-301.45 1311.25,-288 1301.83,-273.4 1287.31,-262.77 1271.65,-255.06"/>
<polygon fill="black" stroke="black" points="1273.19,-251.91 1262.63,-251.01 1270.33,-258.3 1273.19,-251.91"/>
</g>
<!-- [root] root&#45;&gt;[root] provider[&quot;registry.terraform.io/hashicorp/google&quot;] (close) -->
<g id="edge21" class="edge">
<title>[root] root&#45;&gt;[root] provider[&quot;registry.terraform.io/hashicorp/google&quot;] (close)</title>
<path fill="none" stroke="black" d="M860.19,-371.99C764.8,-361.85 545.14,-338.48 396.91,-322.71"/>
<polygon fill="black" stroke="black" points="397.29,-319.23 386.98,-321.65 396.55,-326.19 397.29,-319.23"/>
</g>
</g>
</svg>
